<svg width="1389" height="703" viewBox="0 0 1389 703" fill="none" xmlns="http://www.w3.org/2000/svg">
<g opacity="0.07">
<path d="M529.596 670.119C411.397 1248.69 869.773 1892.51 1553.65 2108.01C2237.52 2323.51 2887.6 2028.97 3005.8 1450.4C3124 871.831 2665.62 228.009 1981.75 12.5116C1297.87 -202.986 647.794 91.5479 529.596 670.119Z" stroke="white"/>
<path d="M425.277 637.247C307.078 1215.82 765.454 1859.64 1449.33 2075.14C2133.2 2290.64 2783.28 1996.1 2901.48 1417.53C3019.68 838.959 2561.3 195.137 1877.43 -20.3606C1193.55 -235.858 543.475 58.6756 425.277 637.247Z" stroke="white"/>
<path d="M319.302 603.853C201.103 1182.42 659.479 1826.25 1343.35 2041.74C2027.23 2257.24 2677.31 1962.71 2795.5 1384.14C2913.7 805.565 2455.33 161.743 1771.45 -53.7545C1087.58 -269.252 437.501 25.2816 319.302 603.853Z" stroke="white"/>
<path d="M214.983 570.981C96.7845 1149.55 555.16 1793.37 1239.04 2008.87C1922.91 2224.37 2572.99 1929.84 2691.19 1351.26C2809.38 772.693 2351.01 128.872 1667.13 -86.6263C983.258 -302.124 333.182 -7.5901 214.983 570.981Z" stroke="white"/>
</g>
</svg>
